<svg xmlns="http://www.w3.org/2000/svg" width="800" height="450" viewBox="0 0 800 450">
    <rect width="100%" height="100%" fill="#eef6ff"/>
    <text x="70" y="55" font-family="Arial,Helvetica,sans-serif" font-size="32" text-anchor="start" fill="#17324d" font-weight="700">Potelets sur la piste</text><rect x="0" y="250" width="800" height="110" fill="#dbf2e5"/><rect x="290" y="245" width="18" height="120" rx="8" fill="#9aa8b5"/><rect x="370" y="245" width="18" height="120" rx="8" fill="#9aa8b5"/><rect x="450" y="245" width="18" height="120" rx="8" fill="#9aa8b5"/>
    <circle cx="100" cy="320" r="24" fill="none" stroke="#1f7aec" stroke-width="6"/>
    <circle cx="172" cy="320" r="24" fill="none" stroke="#1f7aec" stroke-width="6"/>
    <line x1="100" y1="320" x2="134" y2="286" stroke="#1f7aec" stroke-width="6"/>
    <line x1="134" y1="286" x2="154" y2="320" stroke="#1f7aec" stroke-width="6"/>
    <line x1="154" y1="320" x2="100" y2="320" stroke="#1f7aec" stroke-width="6"/>
    <line x1="134" y1="286" x2="172" y2="320" stroke="#1f7aec" stroke-width="6"/>
    <line x1="134" y1="286" x2="128" y2="268" stroke="#1f7aec" stroke-width="6"/>
    <line x1="134" y1="286" x2="158" y2="270" stroke="#1f7aec" stroke-width="6"/>
    <circle cx="134" cy="246" r="14" fill="#ffcf8b" stroke="#17324d" stroke-width="3"/>
    <line x1="134" y1="260" x2="134" y2="286" stroke="#17324d" stroke-width="5"/>
    <line x1="134" y1="270" x2="110" y2="296" stroke="#17324d" stroke-width="5"/>
    <line x1="134" y1="270" x2="158" y2="296" stroke="#17324d" stroke-width="5"/>
    <defs><marker id="arr" markerWidth="8" markerHeight="8" refX="6" refY="3" orient="auto"><polygon points="0 0, 8 3, 0 6" fill="#1f7aec"/></marker></defs><line x1="180" y1="240" x2="260" y2="240" stroke="#1f7aec" stroke-width="6" marker-end="url(#arr)"/><text x="220.0" y="232.0" font-family="Arial,Helvetica,sans-serif" font-size="18" text-anchor="middle" fill="#1f7aec" font-weight="700">je ralentis</text>
    </svg>