<svg xmlns="http://www.w3.org/2000/svg" width="800" height="450" viewBox="0 0 800 450">
    <rect width="100%" height="100%" fill="#eef6ff"/>
    <text x="70" y="55" font-family="Arial,Helvetica,sans-serif" font-size="32" text-anchor="start" fill="#17324d" font-weight="700">Freins et chaîne</text>
    <circle cx="220" cy="320" r="24" fill="none" stroke="#1f7aec" stroke-width="6"/>
    <circle cx="292" cy="320" r="24" fill="none" stroke="#1f7aec" stroke-width="6"/>
    <line x1="220" y1="320" x2="254" y2="286" stroke="#1f7aec" stroke-width="6"/>
    <line x1="254" y1="286" x2="274" y2="320" stroke="#1f7aec" stroke-width="6"/>
    <line x1="274" y1="320" x2="220" y2="320" stroke="#1f7aec" stroke-width="6"/>
    <line x1="254" y1="286" x2="292" y2="320" stroke="#1f7aec" stroke-width="6"/>
    <line x1="254" y1="286" x2="248" y2="268" stroke="#1f7aec" stroke-width="6"/>
    <line x1="254" y1="286" x2="278" y2="270" stroke="#1f7aec" stroke-width="6"/>
    <circle cx="254" cy="246" r="14" fill="#ffcf8b" stroke="#17324d" stroke-width="3"/>
    <line x1="254" y1="260" x2="254" y2="286" stroke="#17324d" stroke-width="5"/>
    <line x1="254" y1="270" x2="230" y2="296" stroke="#17324d" stroke-width="5"/>
    <line x1="254" y1="270" x2="278" y2="296" stroke="#17324d" stroke-width="5"/>
    <circle cx="470" cy="180" r="60" fill="#fff" stroke="#17324d" stroke-width="4"/><path d="M430 180 L460 210 L510 140" stroke="#1f9d55" stroke-width="10" fill="none"/><text x="560" y="180" font-family="Arial,Helvetica,sans-serif" font-size="30" text-anchor="start" fill="#17324d" font-weight="700">je vérifie</text><text x="560" y="220" font-family="Arial,Helvetica,sans-serif" font-size="30" text-anchor="start" fill="#17324d" font-weight="700">avant de partir</text>
    </svg>