<svg xmlns="http://www.w3.org/2000/svg" width="800" height="450" viewBox="0 0 800 450">
    <rect width="100%" height="100%" fill="#eef6ff"/>
    <text x="70" y="55" font-family="Arial,Helvetica,sans-serif" font-size="32" text-anchor="start" fill="#17324d" font-weight="700">Travaux : déviation</text>
    <rect x="0" y="260" width="800" height="120" fill="#5f6b78"/>
    <line x1="0" y1="320.0" x2="800" y2="320.0" stroke="#fff3a1" stroke-width="8" stroke-dasharray="30 18"/>
    
    <circle cx="120" cy="320" r="24" fill="none" stroke="#1f7aec" stroke-width="6"/>
    <circle cx="192" cy="320" r="24" fill="none" stroke="#1f7aec" stroke-width="6"/>
    <line x1="120" y1="320" x2="154" y2="286" stroke="#1f7aec" stroke-width="6"/>
    <line x1="154" y1="286" x2="174" y2="320" stroke="#1f7aec" stroke-width="6"/>
    <line x1="174" y1="320" x2="120" y2="320" stroke="#1f7aec" stroke-width="6"/>
    <line x1="154" y1="286" x2="192" y2="320" stroke="#1f7aec" stroke-width="6"/>
    <line x1="154" y1="286" x2="148" y2="268" stroke="#1f7aec" stroke-width="6"/>
    <line x1="154" y1="286" x2="178" y2="270" stroke="#1f7aec" stroke-width="6"/>
    <circle cx="154" cy="246" r="14" fill="#ffcf8b" stroke="#17324d" stroke-width="3"/>
    <line x1="154" y1="260" x2="154" y2="286" stroke="#17324d" stroke-width="5"/>
    <line x1="154" y1="270" x2="130" y2="296" stroke="#17324d" stroke-width="5"/>
    <line x1="154" y1="270" x2="178" y2="296" stroke="#17324d" stroke-width="5"/>
    <rect x="320" y="250" width="130" height="110" fill="#f7d774" stroke="#17324d" stroke-width="4"/><rect x="350" y="190" width="10" height="60" fill="#17324d"/><rect x="410" y="190" width="10" height="60" fill="#17324d"/><line x1="450" y1="245" x2="540" y2="190" stroke="#1f7aec" stroke-width="10"/><line x1="540" y1="190" x2="520" y2="170" stroke="#1f7aec" stroke-width="10"/><line x1="540" y1="190" x2="510" y2="198" stroke="#1f7aec" stroke-width="10"/><text x="520" y="300" font-family="Arial,Helvetica,sans-serif" font-size="26" text-anchor="start" fill="#1f7aec" font-weight="700">je suis la déviation</text>
    </svg>