<svg xmlns="http://www.w3.org/2000/svg" width="800" height="450" viewBox="0 0 800 450">
    <rect width="100%" height="100%" fill="#eef6ff"/>
    <text x="70" y="55" font-family="Arial,Helvetica,sans-serif" font-size="32" text-anchor="start" fill="#17324d" font-weight="700">Attention aux portières</text>
    <rect x="0" y="260" width="800" height="120" fill="#5f6b78"/>
    <line x1="0" y1="320.0" x2="800" y2="320.0" stroke="#fff3a1" stroke-width="8" stroke-dasharray="30 18"/>
    
    <rect x="420" y="290" width="120" height="46" rx="12" fill="#9aa8b5" stroke="#17324d" stroke-width="3"/>
    <path d="M 440 290 L 462 266 H 504 L 522 290 Z" fill="#9aa8b5" stroke="#17324d" stroke-width="3"/>
    <circle cx="448" cy="336" r="12" fill="#222"/>
    <circle cx="512" cy="336" r="12" fill="#222"/>
    <rect x="510" y="278" width="46" height="12" fill="#9aa8b5" transform="rotate(-35 510 278)"/>
    <circle cx="180" cy="320" r="24" fill="none" stroke="#1f7aec" stroke-width="6"/>
    <circle cx="252" cy="320" r="24" fill="none" stroke="#1f7aec" stroke-width="6"/>
    <line x1="180" y1="320" x2="214" y2="286" stroke="#1f7aec" stroke-width="6"/>
    <line x1="214" y1="286" x2="234" y2="320" stroke="#1f7aec" stroke-width="6"/>
    <line x1="234" y1="320" x2="180" y2="320" stroke="#1f7aec" stroke-width="6"/>
    <line x1="214" y1="286" x2="252" y2="320" stroke="#1f7aec" stroke-width="6"/>
    <line x1="214" y1="286" x2="208" y2="268" stroke="#1f7aec" stroke-width="6"/>
    <line x1="214" y1="286" x2="238" y2="270" stroke="#1f7aec" stroke-width="6"/>
    <circle cx="214" cy="246" r="14" fill="#ffcf8b" stroke="#17324d" stroke-width="3"/>
    <line x1="214" y1="260" x2="214" y2="286" stroke="#17324d" stroke-width="5"/>
    <line x1="214" y1="270" x2="190" y2="296" stroke="#17324d" stroke-width="5"/>
    <line x1="214" y1="270" x2="238" y2="296" stroke="#17324d" stroke-width="5"/>
    <defs><marker id="arr" markerWidth="8" markerHeight="8" refX="6" refY="3" orient="auto"><polygon points="0 0, 8 3, 0 6" fill="#1f7aec"/></marker></defs><line x1="270" y1="240" x2="380" y2="240" stroke="#1f7aec" stroke-width="6" marker-end="url(#arr)"/><text x="325.0" y="232.0" font-family="Arial,Helvetica,sans-serif" font-size="18" text-anchor="middle" fill="#1f7aec" font-weight="700">garde de l'écart</text>
    </svg>