<svg xmlns="http://www.w3.org/2000/svg" width="800" height="450" viewBox="0 0 800 450">
    <rect width="100%" height="100%" fill="#eef6ff"/>
    <text x="70" y="55" font-family="Arial,Helvetica,sans-serif" font-size="32" text-anchor="start" fill="#17324d" font-weight="700">Voie verte</text><rect x="0" y="250" width="800" height="110" fill="#7bc96f"/><line x1="0" y1="305" x2="800" y2="305" stroke="#dff2ff" stroke-width="4" stroke-dasharray="22 14"/>
    <circle cx="170" cy="320" r="24" fill="none" stroke="#1f7aec" stroke-width="6"/>
    <circle cx="242" cy="320" r="24" fill="none" stroke="#1f7aec" stroke-width="6"/>
    <line x1="170" y1="320" x2="204" y2="286" stroke="#1f7aec" stroke-width="6"/>
    <line x1="204" y1="286" x2="224" y2="320" stroke="#1f7aec" stroke-width="6"/>
    <line x1="224" y1="320" x2="170" y2="320" stroke="#1f7aec" stroke-width="6"/>
    <line x1="204" y1="286" x2="242" y2="320" stroke="#1f7aec" stroke-width="6"/>
    <line x1="204" y1="286" x2="198" y2="268" stroke="#1f7aec" stroke-width="6"/>
    <line x1="204" y1="286" x2="228" y2="270" stroke="#1f7aec" stroke-width="6"/>
    <circle cx="204" cy="246" r="14" fill="#ffcf8b" stroke="#17324d" stroke-width="3"/>
    <line x1="204" y1="260" x2="204" y2="286" stroke="#17324d" stroke-width="5"/>
    <line x1="204" y1="270" x2="180" y2="296" stroke="#17324d" stroke-width="5"/>
    <line x1="204" y1="270" x2="228" y2="296" stroke="#17324d" stroke-width="5"/>
    
    <circle cx="520" cy="180" r="12" fill="#ffcf8b" stroke="#17324d" stroke-width="2"/>
    <line x1="520" y1="192" x2="520" y2="224" stroke="#17324d" stroke-width="5"/>
    <line x1="520" y1="200" x2="502" y2="214" stroke="#17324d" stroke-width="5"/>
    <line x1="520" y1="200" x2="538" y2="214" stroke="#17324d" stroke-width="5"/>
    <line x1="520" y1="224" x2="504" y2="248" stroke="#17324d" stroke-width="5"/>
    <line x1="520" y1="224" x2="536" y2="248" stroke="#17324d" stroke-width="5"/>
    <text x="480" y="90" font-family="Arial,Helvetica,sans-serif" font-size="30" text-anchor="start" fill="#1f7aec" font-weight="700">Partage et prudence</text>
    </svg>