<svg xmlns="http://www.w3.org/2000/svg" width="800" height="450" viewBox="0 0 800 450">
    <rect width="100%" height="100%" fill="#eef6ff"/>
    <text x="70" y="55" font-family="Arial,Helvetica,sans-serif" font-size="32" text-anchor="start" fill="#17324d" font-weight="700">Feu vert</text>
    <rect x="0" y="260" width="800" height="120" fill="#5f6b78"/>
    <line x1="0" y1="320.0" x2="800" y2="320.0" stroke="#fff3a1" stroke-width="8" stroke-dasharray="30 18"/>
    
    <rect x="560" y="0" width="110" height="450" fill="#5f6b78"/>
    <line x1="615.0" y1="0" x2="615.0" y2="450" stroke="#fff3a1" stroke-width="8" stroke-dasharray="30 18"/>
    
    <circle cx="250" cy="320" r="24" fill="none" stroke="#1f7aec" stroke-width="6"/>
    <circle cx="322" cy="320" r="24" fill="none" stroke="#1f7aec" stroke-width="6"/>
    <line x1="250" y1="320" x2="284" y2="286" stroke="#1f7aec" stroke-width="6"/>
    <line x1="284" y1="286" x2="304" y2="320" stroke="#1f7aec" stroke-width="6"/>
    <line x1="304" y1="320" x2="250" y2="320" stroke="#1f7aec" stroke-width="6"/>
    <line x1="284" y1="286" x2="322" y2="320" stroke="#1f7aec" stroke-width="6"/>
    <line x1="284" y1="286" x2="278" y2="268" stroke="#1f7aec" stroke-width="6"/>
    <line x1="284" y1="286" x2="308" y2="270" stroke="#1f7aec" stroke-width="6"/>
    <circle cx="284" cy="246" r="14" fill="#ffcf8b" stroke="#17324d" stroke-width="3"/>
    <line x1="284" y1="260" x2="284" y2="286" stroke="#17324d" stroke-width="5"/>
    <line x1="284" y1="270" x2="260" y2="296" stroke="#17324d" stroke-width="5"/>
    <line x1="284" y1="270" x2="308" y2="296" stroke="#17324d" stroke-width="5"/>
    <rect x="530" y="110" width="18" height="110" rx="8" fill="#333"/><circle cx="539" cy="136" r="16" fill="#444"/><circle cx="539" cy="166" r="16" fill="#444"/><circle cx="539" cy="196" r="16" fill="#1f9d55"/><defs><marker id="arr" markerWidth="8" markerHeight="8" refX="6" refY="3" orient="auto"><polygon points="0 0, 8 3, 0 6" fill="#1f7aec"/></marker></defs><line x1="300" y1="260" x2="380" y2="260" stroke="#1f7aec" stroke-width="6" marker-end="url(#arr)"/><text x="340.0" y="252.0" font-family="Arial,Helvetica,sans-serif" font-size="18" text-anchor="middle" fill="#1f7aec" font-weight="700">avance</text>
    </svg>