<svg xmlns="http://www.w3.org/2000/svg" width="800" height="450" viewBox="0 0 800 450">
    <rect width="100%" height="100%" fill="#eef6ff"/>
    <text x="70" y="55" font-family="Arial,Helvetica,sans-serif" font-size="32" text-anchor="start" fill="#17324d" font-weight="700">Intersection</text>
    <rect x="0" y="260" width="800" height="120" fill="#5f6b78"/>
    <line x1="0" y1="320.0" x2="800" y2="320.0" stroke="#fff3a1" stroke-width="8" stroke-dasharray="30 18"/>
    
    <rect x="400" y="0" width="120" height="450" fill="#5f6b78"/>
    <line x1="460.0" y1="0" x2="460.0" y2="450" stroke="#fff3a1" stroke-width="8" stroke-dasharray="30 18"/>
    
    <circle cx="150" cy="320" r="24" fill="none" stroke="#1f7aec" stroke-width="6"/>
    <circle cx="222" cy="320" r="24" fill="none" stroke="#1f7aec" stroke-width="6"/>
    <line x1="150" y1="320" x2="184" y2="286" stroke="#1f7aec" stroke-width="6"/>
    <line x1="184" y1="286" x2="204" y2="320" stroke="#1f7aec" stroke-width="6"/>
    <line x1="204" y1="320" x2="150" y2="320" stroke="#1f7aec" stroke-width="6"/>
    <line x1="184" y1="286" x2="222" y2="320" stroke="#1f7aec" stroke-width="6"/>
    <line x1="184" y1="286" x2="178" y2="268" stroke="#1f7aec" stroke-width="6"/>
    <line x1="184" y1="286" x2="208" y2="270" stroke="#1f7aec" stroke-width="6"/>
    <circle cx="184" cy="246" r="14" fill="#ffcf8b" stroke="#17324d" stroke-width="3"/>
    <line x1="184" y1="260" x2="184" y2="286" stroke="#17324d" stroke-width="5"/>
    <line x1="184" y1="270" x2="160" y2="296" stroke="#17324d" stroke-width="5"/>
    <line x1="184" y1="270" x2="208" y2="296" stroke="#17324d" stroke-width="5"/>
    
    <rect x="530" y="296" width="120" height="46" rx="12" fill="#e15f41" stroke="#17324d" stroke-width="3"/>
    <path d="M 550 296 L 572 272 H 614 L 632 296 Z" fill="#e15f41" stroke="#17324d" stroke-width="3"/>
    <circle cx="558" cy="342" r="12" fill="#222"/>
    <circle cx="622" cy="342" r="12" fill="#222"/>
    <defs><marker id="arr" markerWidth="8" markerHeight="8" refX="6" refY="3" orient="auto"><polygon points="0 0, 8 3, 0 6" fill="#1f7aec"/></marker></defs><line x1="210" y1="245" x2="300" y2="245" stroke="#1f7aec" stroke-width="6" marker-end="url(#arr)"/><text x="255.0" y="237.0" font-family="Arial,Helvetica,sans-serif" font-size="18" text-anchor="middle" fill="#1f7aec" font-weight="700">j'observe</text>
    </svg>