<svg xmlns="http://www.w3.org/2000/svg" width="800" height="450" viewBox="0 0 800 450">
    <rect width="100%" height="100%" fill="#eef6ff"/>
    <rect width="800" height="450" fill="#0f1c2b"/><circle cx="680" cy="80" r="40" fill="#fff7c2"/>
    <rect x="0" y="260" width="800" height="120" fill="#5f6b78"/>
    <line x1="0" y1="320.0" x2="800" y2="320.0" stroke="#fff3a1" stroke-width="8" stroke-dasharray="30 18"/>
    
    <circle cx="250" cy="320" r="24" fill="none" stroke="#1f7aec" stroke-width="6"/>
    <circle cx="322" cy="320" r="24" fill="none" stroke="#1f7aec" stroke-width="6"/>
    <line x1="250" y1="320" x2="284" y2="286" stroke="#1f7aec" stroke-width="6"/>
    <line x1="284" y1="286" x2="304" y2="320" stroke="#1f7aec" stroke-width="6"/>
    <line x1="304" y1="320" x2="250" y2="320" stroke="#1f7aec" stroke-width="6"/>
    <line x1="284" y1="286" x2="322" y2="320" stroke="#1f7aec" stroke-width="6"/>
    <line x1="284" y1="286" x2="278" y2="268" stroke="#1f7aec" stroke-width="6"/>
    <line x1="284" y1="286" x2="308" y2="270" stroke="#1f7aec" stroke-width="6"/>
    <circle cx="284" cy="246" r="14" fill="#ffcf8b" stroke="#17324d" stroke-width="3"/>
    <line x1="284" y1="260" x2="284" y2="286" stroke="#17324d" stroke-width="5"/>
    <line x1="284" y1="270" x2="260" y2="296" stroke="#17324d" stroke-width="5"/>
    <line x1="284" y1="270" x2="308" y2="296" stroke="#17324d" stroke-width="5"/>
    <circle cx="330" cy="313" r="10" fill="#fff59d"/><circle cx="250" cy="320" r="8" fill="#d64545"/><text x="70" y="55" font-family="Arial,Helvetica,sans-serif" font-size="32" text-anchor="start" fill="#fff" font-weight="700">De nuit : sois visible</text><text x="70" y="95" font-family="Arial,Helvetica,sans-serif" font-size="24" text-anchor="start" fill="#dff2ff" font-weight="700">Feu avant + feu arrière</text>
    </svg>