<svg xmlns="http://www.w3.org/2000/svg" width="800" height="450" viewBox="0 0 800 450">
    <rect width="100%" height="100%" fill="#eef6ff"/>
    <text x="70" y="55" font-family="Arial,Helvetica,sans-serif" font-size="28" text-anchor="start" fill="#17324d" font-weight="700">Téléphone interdit en roulant</text>
    <rect x="0" y="260" width="800" height="120" fill="#5f6b78"/>
    <line x1="0" y1="320.0" x2="800" y2="320.0" stroke="#fff3a1" stroke-width="8" stroke-dasharray="30 18"/>
    
    <circle cx="180" cy="320" r="24" fill="none" stroke="#1f7aec" stroke-width="6"/>
    <circle cx="252" cy="320" r="24" fill="none" stroke="#1f7aec" stroke-width="6"/>
    <line x1="180" y1="320" x2="214" y2="286" stroke="#1f7aec" stroke-width="6"/>
    <line x1="214" y1="286" x2="234" y2="320" stroke="#1f7aec" stroke-width="6"/>
    <line x1="234" y1="320" x2="180" y2="320" stroke="#1f7aec" stroke-width="6"/>
    <line x1="214" y1="286" x2="252" y2="320" stroke="#1f7aec" stroke-width="6"/>
    <line x1="214" y1="286" x2="208" y2="268" stroke="#1f7aec" stroke-width="6"/>
    <line x1="214" y1="286" x2="238" y2="270" stroke="#1f7aec" stroke-width="6"/>
    <circle cx="214" cy="246" r="14" fill="#ffcf8b" stroke="#17324d" stroke-width="3"/>
    <line x1="214" y1="260" x2="214" y2="286" stroke="#17324d" stroke-width="5"/>
    <line x1="214" y1="270" x2="190" y2="296" stroke="#17324d" stroke-width="5"/>
    <line x1="214" y1="270" x2="238" y2="296" stroke="#17324d" stroke-width="5"/>
    <rect x="270" y="140" width="80" height="130" rx="12" fill="#fff" stroke="#17324d" stroke-width="4"/><line x1="270" y1="140" x2="350" y2="270" stroke="#d64545" stroke-width="10"/><text x="470" y="220" font-family="Arial,Helvetica,sans-serif" font-size="30" text-anchor="start" fill="#17324d" font-weight="700">Les mains et les yeux</text><text x="470" y="260" font-family="Arial,Helvetica,sans-serif" font-size="30" text-anchor="start" fill="#17324d" font-weight="700">restent sur la route</text>
    </svg>