<svg xmlns="http://www.w3.org/2000/svg" width="800" height="450" viewBox="0 0 800 450">
    <rect width="100%" height="100%" fill="#eef6ff"/>
    <text x="70" y="55" font-family="Arial,Helvetica,sans-serif" font-size="32" text-anchor="start" fill="#17324d" font-weight="700">Près de l'école</text>
    <rect x="0" y="260" width="800" height="120" fill="#5f6b78"/>
    <line x1="0" y1="320.0" x2="800" y2="320.0" stroke="#fff3a1" stroke-width="8" stroke-dasharray="30 18"/>
    
    <circle cx="160" cy="320" r="24" fill="none" stroke="#1f7aec" stroke-width="6"/>
    <circle cx="232" cy="320" r="24" fill="none" stroke="#1f7aec" stroke-width="6"/>
    <line x1="160" y1="320" x2="194" y2="286" stroke="#1f7aec" stroke-width="6"/>
    <line x1="194" y1="286" x2="214" y2="320" stroke="#1f7aec" stroke-width="6"/>
    <line x1="214" y1="320" x2="160" y2="320" stroke="#1f7aec" stroke-width="6"/>
    <line x1="194" y1="286" x2="232" y2="320" stroke="#1f7aec" stroke-width="6"/>
    <line x1="194" y1="286" x2="188" y2="268" stroke="#1f7aec" stroke-width="6"/>
    <line x1="194" y1="286" x2="218" y2="270" stroke="#1f7aec" stroke-width="6"/>
    <circle cx="194" cy="246" r="14" fill="#ffcf8b" stroke="#17324d" stroke-width="3"/>
    <line x1="194" y1="260" x2="194" y2="286" stroke="#17324d" stroke-width="5"/>
    <line x1="194" y1="270" x2="170" y2="296" stroke="#17324d" stroke-width="5"/>
    <line x1="194" y1="270" x2="218" y2="296" stroke="#17324d" stroke-width="5"/>
    
    <circle cx="510" cy="180" r="12" fill="#ffcf8b" stroke="#17324d" stroke-width="2"/>
    <line x1="510" y1="192" x2="510" y2="224" stroke="#17324d" stroke-width="5"/>
    <line x1="510" y1="200" x2="492" y2="214" stroke="#17324d" stroke-width="5"/>
    <line x1="510" y1="200" x2="528" y2="214" stroke="#17324d" stroke-width="5"/>
    <line x1="510" y1="224" x2="494" y2="248" stroke="#17324d" stroke-width="5"/>
    <line x1="510" y1="224" x2="526" y2="248" stroke="#17324d" stroke-width="5"/>
    
    <circle cx="560" cy="210" r="12" fill="#ffcf8b" stroke="#17324d" stroke-width="2"/>
    <line x1="560" y1="222" x2="560" y2="254" stroke="#17324d" stroke-width="5"/>
    <line x1="560" y1="230" x2="542" y2="244" stroke="#17324d" stroke-width="5"/>
    <line x1="560" y1="230" x2="578" y2="244" stroke="#17324d" stroke-width="5"/>
    <line x1="560" y1="254" x2="544" y2="278" stroke="#17324d" stroke-width="5"/>
    <line x1="560" y1="254" x2="576" y2="278" stroke="#17324d" stroke-width="5"/>
    <rect x="620" y="130" width="110" height="120" fill="#f7d774" stroke="#17324d" stroke-width="4"/><text x="675" y="195" font-family="Arial,Helvetica,sans-serif" font-size="28" text-anchor="middle" fill="#17324d" font-weight="700">ÉCOLE</text><defs><marker id="arr" markerWidth="8" markerHeight="8" refX="6" refY="3" orient="auto"><polygon points="0 0, 8 3, 0 6" fill="#1f7aec"/></marker></defs><line x1="190" y1="240" x2="280" y2="240" stroke="#1f7aec" stroke-width="6" marker-end="url(#arr)"/><text x="235.0" y="232.0" font-family="Arial,Helvetica,sans-serif" font-size="18" text-anchor="middle" fill="#1f7aec" font-weight="700">je ralentis</text>
    </svg>