<svg xmlns="http://www.w3.org/2000/svg" width="800" height="450" viewBox="0 0 800 450">
    <rect width="100%" height="100%" fill="#eef6ff"/>
    <text x="70" y="55" font-family="Arial,Helvetica,sans-serif" font-size="30" text-anchor="start" fill="#17324d" font-weight="700">Moins de 8 ans sur le trottoir</text><rect x="0" y="250" width="800" height="80" fill="#cfd8e3"/><rect x="0" y="330" width="800" height="120" fill="#5f6b78"/>
    <circle cx="150" cy="290" r="24" fill="none" stroke="#1f7aec" stroke-width="6"/>
    <circle cx="222" cy="290" r="24" fill="none" stroke="#1f7aec" stroke-width="6"/>
    <line x1="150" y1="290" x2="184" y2="256" stroke="#1f7aec" stroke-width="6"/>
    <line x1="184" y1="256" x2="204" y2="290" stroke="#1f7aec" stroke-width="6"/>
    <line x1="204" y1="290" x2="150" y2="290" stroke="#1f7aec" stroke-width="6"/>
    <line x1="184" y1="256" x2="222" y2="290" stroke="#1f7aec" stroke-width="6"/>
    <line x1="184" y1="256" x2="178" y2="238" stroke="#1f7aec" stroke-width="6"/>
    <line x1="184" y1="256" x2="208" y2="240" stroke="#1f7aec" stroke-width="6"/>
    <circle cx="184" cy="216" r="14" fill="#ffcf8b" stroke="#17324d" stroke-width="3"/>
    <line x1="184" y1="230" x2="184" y2="256" stroke="#17324d" stroke-width="5"/>
    <line x1="184" y1="240" x2="160" y2="266" stroke="#17324d" stroke-width="5"/>
    <line x1="184" y1="240" x2="208" y2="266" stroke="#17324d" stroke-width="5"/>
    
    <circle cx="430" cy="205" r="12" fill="#ffcf8b" stroke="#17324d" stroke-width="2"/>
    <line x1="430" y1="217" x2="430" y2="249" stroke="#17324d" stroke-width="5"/>
    <line x1="430" y1="225" x2="412" y2="239" stroke="#17324d" stroke-width="5"/>
    <line x1="430" y1="225" x2="448" y2="239" stroke="#17324d" stroke-width="5"/>
    <line x1="430" y1="249" x2="414" y2="273" stroke="#17324d" stroke-width="5"/>
    <line x1="430" y1="249" x2="446" y2="273" stroke="#17324d" stroke-width="5"/>
    <defs><marker id="arr" markerWidth="8" markerHeight="8" refX="6" refY="3" orient="auto"><polygon points="0 0, 8 3, 0 6" fill="#1f7aec"/></marker></defs><line x1="240" y1="210" x2="330" y2="210" stroke="#1f7aec" stroke-width="6" marker-end="url(#arr)"/><text x="285.0" y="202.0" font-family="Arial,Helvetica,sans-serif" font-size="18" text-anchor="middle" fill="#1f7aec" font-weight="700">allure du pas</text>
    </svg>