<svg xmlns="http://www.w3.org/2000/svg" width="800" height="450" viewBox="0 0 800 450">
    <rect width="100%" height="100%" fill="#eef6ff"/>
    <text x="70" y="55" font-family="Arial,Helvetica,sans-serif" font-size="32" text-anchor="start" fill="#17324d" font-weight="700">Voiture qui tourne</text>
    <rect x="0" y="260" width="800" height="120" fill="#5f6b78"/>
    <line x1="0" y1="320.0" x2="800" y2="320.0" stroke="#fff3a1" stroke-width="8" stroke-dasharray="30 18"/>
    
    <circle cx="520" cy="320" r="24" fill="none" stroke="#1f7aec" stroke-width="6"/>
    <circle cx="592" cy="320" r="24" fill="none" stroke="#1f7aec" stroke-width="6"/>
    <line x1="520" y1="320" x2="554" y2="286" stroke="#1f7aec" stroke-width="6"/>
    <line x1="554" y1="286" x2="574" y2="320" stroke="#1f7aec" stroke-width="6"/>
    <line x1="574" y1="320" x2="520" y2="320" stroke="#1f7aec" stroke-width="6"/>
    <line x1="554" y1="286" x2="592" y2="320" stroke="#1f7aec" stroke-width="6"/>
    <line x1="554" y1="286" x2="548" y2="268" stroke="#1f7aec" stroke-width="6"/>
    <line x1="554" y1="286" x2="578" y2="270" stroke="#1f7aec" stroke-width="6"/>
    <circle cx="554" cy="246" r="14" fill="#ffcf8b" stroke="#17324d" stroke-width="3"/>
    <line x1="554" y1="260" x2="554" y2="286" stroke="#17324d" stroke-width="5"/>
    <line x1="554" y1="270" x2="530" y2="296" stroke="#17324d" stroke-width="5"/>
    <line x1="554" y1="270" x2="578" y2="296" stroke="#17324d" stroke-width="5"/>
    
    <rect x="260" y="296" width="120" height="46" rx="12" fill="#e15f41" stroke="#17324d" stroke-width="3"/>
    <path d="M 280 296 L 302 272 H 344 L 362 296 Z" fill="#e15f41" stroke="#17324d" stroke-width="3"/>
    <circle cx="288" cy="342" r="12" fill="#222"/>
    <circle cx="352" cy="342" r="12" fill="#222"/>
    <defs><marker id="arr" markerWidth="8" markerHeight="8" refX="6" refY="3" orient="auto"><polygon points="0 0, 8 3, 0 6" fill="#d64545"/></marker></defs><line x1="320" y1="260" x2="400" y2="260" stroke="#d64545" stroke-width="6" marker-end="url(#arr)"/><text x="360.0" y="252.0" font-family="Arial,Helvetica,sans-serif" font-size="18" text-anchor="middle" fill="#d64545" font-weight="700">attention</text>
    </svg>