<svg xmlns="http://www.w3.org/2000/svg" width="800" height="450" viewBox="0 0 800 450">
    <rect width="100%" height="100%" fill="#eef6ff"/>
    <text x="70" y="55" font-family="Arial,Helvetica,sans-serif" font-size="32" text-anchor="start" fill="#17324d" font-weight="700">Aménagement cyclable</text><circle cx="120" cy="110" r="54" fill="#1f7aec" stroke="#fff" stroke-width="8"/><g transform="translate(90,125) scale(0.55)">
    <circle cx="0" cy="0" r="24" fill="none" stroke="#fff" stroke-width="6"/>
    <circle cx="72" cy="0" r="24" fill="none" stroke="#fff" stroke-width="6"/>
    <line x1="0" y1="0" x2="34" y2="-34" stroke="#fff" stroke-width="6"/>
    <line x1="34" y1="-34" x2="54" y2="0" stroke="#fff" stroke-width="6"/>
    <line x1="54" y1="0" x2="0" y2="0" stroke="#fff" stroke-width="6"/>
    <line x1="34" y1="-34" x2="72" y2="0" stroke="#fff" stroke-width="6"/>
    <line x1="34" y1="-34" x2="28" y2="-52" stroke="#fff" stroke-width="6"/>
    <line x1="34" y1="-34" x2="58" y2="-50" stroke="#fff" stroke-width="6"/>
    <circle cx="34" cy="-74" r="14" fill="#ffcf8b" stroke="#fff" stroke-width="3"/>
    <line x1="34" y1="-60" x2="34" y2="-34" stroke="#fff" stroke-width="5"/>
    <line x1="34" y1="-50" x2="10" y2="-24" stroke="#fff" stroke-width="5"/>
    <line x1="34" y1="-50" x2="58" y2="-24" stroke="#fff" stroke-width="5"/>
    </g>
    <rect x="0" y="260" width="800" height="120" fill="#5f6b78"/>
    <line x1="0" y1="320.0" x2="800" y2="320.0" stroke="#fff3a1" stroke-width="8" stroke-dasharray="30 18"/>
    <rect x="70" y="260" width="180" height="120" fill="#dbf2e5" stroke="#1f9d55" stroke-width="4"/>
    <circle cx="100" cy="320" r="24" fill="none" stroke="#1f7aec" stroke-width="6"/>
    <circle cx="172" cy="320" r="24" fill="none" stroke="#1f7aec" stroke-width="6"/>
    <line x1="100" y1="320" x2="134" y2="286" stroke="#1f7aec" stroke-width="6"/>
    <line x1="134" y1="286" x2="154" y2="320" stroke="#1f7aec" stroke-width="6"/>
    <line x1="154" y1="320" x2="100" y2="320" stroke="#1f7aec" stroke-width="6"/>
    <line x1="134" y1="286" x2="172" y2="320" stroke="#1f7aec" stroke-width="6"/>
    <line x1="134" y1="286" x2="128" y2="268" stroke="#1f7aec" stroke-width="6"/>
    <line x1="134" y1="286" x2="158" y2="270" stroke="#1f7aec" stroke-width="6"/>
    <circle cx="134" cy="246" r="14" fill="#ffcf8b" stroke="#17324d" stroke-width="3"/>
    <line x1="134" y1="260" x2="134" y2="286" stroke="#17324d" stroke-width="5"/>
    <line x1="134" y1="270" x2="110" y2="296" stroke="#17324d" stroke-width="5"/>
    <line x1="134" y1="270" x2="158" y2="296" stroke="#17324d" stroke-width="5"/>
    
    <rect x="420" y="296" width="120" height="46" rx="12" fill="#e15f41" stroke="#17324d" stroke-width="3"/>
    <path d="M 440 296 L 462 272 H 504 L 522 296 Z" fill="#e15f41" stroke="#17324d" stroke-width="3"/>
    <circle cx="448" cy="342" r="12" fill="#222"/>
    <circle cx="512" cy="342" r="12" fill="#222"/>
    <defs><marker id="arr" markerWidth="8" markerHeight="8" refX="6" refY="3" orient="auto"><polygon points="0 0, 8 3, 0 6" fill="#1f7aec"/></marker></defs><line x1="130" y1="230" x2="130" y2="180" stroke="#1f7aec" stroke-width="6" marker-end="url(#arr)"/><text x="130.0" y="197.0" font-family="Arial,Helvetica,sans-serif" font-size="18" text-anchor="middle" fill="#1f7aec" font-weight="700">voie vélo</text>
    </svg>