<svg xmlns="http://www.w3.org/2000/svg" width="800" height="450" viewBox="0 0 800 450">
    <rect width="100%" height="100%" fill="#eef6ff"/>
    <text x="70" y="55" font-family="Arial,Helvetica,sans-serif" font-size="32" text-anchor="start" fill="#17324d" font-weight="700">Angle mort du bus</text>
    <rect x="0" y="260" width="800" height="120" fill="#5f6b78"/>
    <line x1="0" y1="320.0" x2="800" y2="320.0" stroke="#fff3a1" stroke-width="8" stroke-dasharray="30 18"/>
    
    <rect x="340" y="274" width="170" height="56" rx="10" fill="#ffcf40" stroke="#17324d" stroke-width="3"/>
    <rect x="352" y="284" width="36" height="20" fill="#dff2ff"/>
    <rect x="394" y="284" width="36" height="20" fill="#dff2ff"/>
    <rect x="436" y="284" width="36" height="20" fill="#dff2ff"/>
    <rect x="478" y="284" width="20" height="20" fill="#dff2ff"/>
    <circle cx="374" cy="330" r="12" fill="#222"/>
    <circle cx="476" cy="330" r="12" fill="#222"/>
    
    <circle cx="560" cy="320" r="24" fill="none" stroke="#1f7aec" stroke-width="6"/>
    <circle cx="632" cy="320" r="24" fill="none" stroke="#1f7aec" stroke-width="6"/>
    <line x1="560" y1="320" x2="594" y2="286" stroke="#1f7aec" stroke-width="6"/>
    <line x1="594" y1="286" x2="614" y2="320" stroke="#1f7aec" stroke-width="6"/>
    <line x1="614" y1="320" x2="560" y2="320" stroke="#1f7aec" stroke-width="6"/>
    <line x1="594" y1="286" x2="632" y2="320" stroke="#1f7aec" stroke-width="6"/>
    <line x1="594" y1="286" x2="588" y2="268" stroke="#1f7aec" stroke-width="6"/>
    <line x1="594" y1="286" x2="618" y2="270" stroke="#1f7aec" stroke-width="6"/>
    <circle cx="594" cy="246" r="14" fill="#ffcf8b" stroke="#17324d" stroke-width="3"/>
    <line x1="594" y1="260" x2="594" y2="286" stroke="#17324d" stroke-width="5"/>
    <line x1="594" y1="270" x2="570" y2="296" stroke="#17324d" stroke-width="5"/>
    <line x1="594" y1="270" x2="618" y2="296" stroke="#17324d" stroke-width="5"/>
    <polygon points="460,250 690,150 690,360" fill="#d64545" opacity="0.18"/><text x="510" y="130" font-family="Arial,Helvetica,sans-serif" font-size="28" text-anchor="start" fill="#d64545" font-weight="700">Zone dangereuse</text>
    </svg>