<svg xmlns="http://www.w3.org/2000/svg" width="800" height="450" viewBox="0 0 800 450">
    <rect width="100%" height="100%" fill="#eef6ff"/>
    <text x="70" y="55" font-family="Arial,Helvetica,sans-serif" font-size="30" text-anchor="start" fill="#17324d" font-weight="700">Sortie de garage / allée</text>
    <rect x="0" y="260" width="800" height="120" fill="#5f6b78"/>
    <line x1="0" y1="320.0" x2="800" y2="320.0" stroke="#fff3a1" stroke-width="8" stroke-dasharray="30 18"/>
    
    <circle cx="160" cy="320" r="24" fill="none" stroke="#1f7aec" stroke-width="6"/>
    <circle cx="232" cy="320" r="24" fill="none" stroke="#1f7aec" stroke-width="6"/>
    <line x1="160" y1="320" x2="194" y2="286" stroke="#1f7aec" stroke-width="6"/>
    <line x1="194" y1="286" x2="214" y2="320" stroke="#1f7aec" stroke-width="6"/>
    <line x1="214" y1="320" x2="160" y2="320" stroke="#1f7aec" stroke-width="6"/>
    <line x1="194" y1="286" x2="232" y2="320" stroke="#1f7aec" stroke-width="6"/>
    <line x1="194" y1="286" x2="188" y2="268" stroke="#1f7aec" stroke-width="6"/>
    <line x1="194" y1="286" x2="218" y2="270" stroke="#1f7aec" stroke-width="6"/>
    <circle cx="194" cy="246" r="14" fill="#ffcf8b" stroke="#17324d" stroke-width="3"/>
    <line x1="194" y1="260" x2="194" y2="286" stroke="#17324d" stroke-width="5"/>
    <line x1="194" y1="270" x2="170" y2="296" stroke="#17324d" stroke-width="5"/>
    <line x1="194" y1="270" x2="218" y2="296" stroke="#17324d" stroke-width="5"/>
    
    <rect x="520" y="160" width="120" height="46" rx="12" fill="#50b37c" stroke="#17324d" stroke-width="3"/>
    <path d="M 540 160 L 562 136 H 604 L 622 160 Z" fill="#50b37c" stroke="#17324d" stroke-width="3"/>
    <circle cx="548" cy="206" r="12" fill="#222"/>
    <circle cx="612" cy="206" r="12" fill="#222"/>
    <rect x="500" y="0" width="180" height="180" fill="#cfd8e3" transform="skewY(-22)"/><defs><marker id="arr" markerWidth="8" markerHeight="8" refX="6" refY="3" orient="auto"><polygon points="0 0, 8 3, 0 6" fill="#1f7aec"/></marker></defs><line x1="540" y1="170" x2="470" y2="250" stroke="#1f7aec" stroke-width="6" marker-end="url(#arr)"/><text x="505.0" y="202.0" font-family="Arial,Helvetica,sans-serif" font-size="18" text-anchor="middle" fill="#1f7aec" font-weight="700">prudence</text>
    </svg>