<svg xmlns="http://www.w3.org/2000/svg" width="800" height="450" viewBox="0 0 800 450">
    <rect width="100%" height="100%" fill="#eef6ff"/>
    <polygon points="120.0,42.0 60.2,147.4 179.8,147.4" fill="#fff" stroke="#d64545" stroke-width="10"/><text x="120" y="130" font-family="Arial,Helvetica,sans-serif" font-size="40" text-anchor="middle" fill="#17324d" font-weight="700"></text><text x="230" y="70" font-family="Arial,Helvetica,sans-serif" font-size="32" text-anchor="start" fill="#17324d" font-weight="700">Cédez le passage</text>
    <rect x="0" y="260" width="800" height="120" fill="#5f6b78"/>
    <line x1="0" y1="320.0" x2="800" y2="320.0" stroke="#fff3a1" stroke-width="8" stroke-dasharray="30 18"/>
    
    <rect x="520" y="0" width="110" height="450" fill="#5f6b78"/>
    <line x1="575.0" y1="0" x2="575.0" y2="450" stroke="#fff3a1" stroke-width="8" stroke-dasharray="30 18"/>
    
    <circle cx="250" cy="320" r="24" fill="none" stroke="#1f7aec" stroke-width="6"/>
    <circle cx="322" cy="320" r="24" fill="none" stroke="#1f7aec" stroke-width="6"/>
    <line x1="250" y1="320" x2="284" y2="286" stroke="#1f7aec" stroke-width="6"/>
    <line x1="284" y1="286" x2="304" y2="320" stroke="#1f7aec" stroke-width="6"/>
    <line x1="304" y1="320" x2="250" y2="320" stroke="#1f7aec" stroke-width="6"/>
    <line x1="284" y1="286" x2="322" y2="320" stroke="#1f7aec" stroke-width="6"/>
    <line x1="284" y1="286" x2="278" y2="268" stroke="#1f7aec" stroke-width="6"/>
    <line x1="284" y1="286" x2="308" y2="270" stroke="#1f7aec" stroke-width="6"/>
    <circle cx="284" cy="246" r="14" fill="#ffcf8b" stroke="#17324d" stroke-width="3"/>
    <line x1="284" y1="260" x2="284" y2="286" stroke="#17324d" stroke-width="5"/>
    <line x1="284" y1="270" x2="260" y2="296" stroke="#17324d" stroke-width="5"/>
    <line x1="284" y1="270" x2="308" y2="296" stroke="#17324d" stroke-width="5"/>
    
    <rect x="516" y="120" width="120" height="46" rx="12" fill="#50b37c" stroke="#17324d" stroke-width="3"/>
    <path d="M 536 120 L 558 96 H 600 L 618 120 Z" fill="#50b37c" stroke="#17324d" stroke-width="3"/>
    <circle cx="544" cy="166" r="12" fill="#222"/>
    <circle cx="608" cy="166" r="12" fill="#222"/>
    <defs><marker id="arr" markerWidth="8" markerHeight="8" refX="6" refY="3" orient="auto"><polygon points="0 0, 8 3, 0 6" fill="#1f7aec"/></marker></defs><line x1="610" y1="120" x2="610" y2="240" stroke="#1f7aec" stroke-width="6" marker-end="url(#arr)"/><text x="610.0" y="172.0" font-family="Arial,Helvetica,sans-serif" font-size="18" text-anchor="middle" fill="#1f7aec" font-weight="700">priorité</text>
    </svg>