<svg xmlns="http://www.w3.org/2000/svg" width="800" height="450" viewBox="0 0 800 450">
    <rect width="100%" height="100%" fill="#eef6ff"/>
    <text x="70" y="55" font-family="Arial,Helvetica,sans-serif" font-size="32" text-anchor="start" fill="#17324d" font-weight="700">Je laisse de la place</text>
    <rect x="0" y="260" width="800" height="120" fill="#5f6b78"/>
    <line x1="0" y1="320.0" x2="800" y2="320.0" stroke="#fff3a1" stroke-width="8" stroke-dasharray="30 18"/>
    
    <rect x="380" y="296" width="120" height="46" rx="12" fill="#9aa8b5" stroke="#17324d" stroke-width="3"/>
    <path d="M 400 296 L 422 272 H 464 L 482 296 Z" fill="#9aa8b5" stroke="#17324d" stroke-width="3"/>
    <circle cx="408" cy="342" r="12" fill="#222"/>
    <circle cx="472" cy="342" r="12" fill="#222"/>
    
    <rect x="510" y="296" width="120" height="46" rx="12" fill="#9aa8b5" stroke="#17324d" stroke-width="3"/>
    <path d="M 530 296 L 552 272 H 594 L 612 296 Z" fill="#9aa8b5" stroke="#17324d" stroke-width="3"/>
    <circle cx="538" cy="342" r="12" fill="#222"/>
    <circle cx="602" cy="342" r="12" fill="#222"/>
    
    <rect x="640" y="296" width="120" height="46" rx="12" fill="#9aa8b5" stroke="#17324d" stroke-width="3"/>
    <path d="M 660 296 L 682 272 H 724 L 742 296 Z" fill="#9aa8b5" stroke="#17324d" stroke-width="3"/>
    <circle cx="668" cy="342" r="12" fill="#222"/>
    <circle cx="732" cy="342" r="12" fill="#222"/>
    
    <circle cx="120" cy="320" r="24" fill="none" stroke="#1f7aec" stroke-width="6"/>
    <circle cx="192" cy="320" r="24" fill="none" stroke="#1f7aec" stroke-width="6"/>
    <line x1="120" y1="320" x2="154" y2="286" stroke="#1f7aec" stroke-width="6"/>
    <line x1="154" y1="286" x2="174" y2="320" stroke="#1f7aec" stroke-width="6"/>
    <line x1="174" y1="320" x2="120" y2="320" stroke="#1f7aec" stroke-width="6"/>
    <line x1="154" y1="286" x2="192" y2="320" stroke="#1f7aec" stroke-width="6"/>
    <line x1="154" y1="286" x2="148" y2="268" stroke="#1f7aec" stroke-width="6"/>
    <line x1="154" y1="286" x2="178" y2="270" stroke="#1f7aec" stroke-width="6"/>
    <circle cx="154" cy="246" r="14" fill="#ffcf8b" stroke="#17324d" stroke-width="3"/>
    <line x1="154" y1="260" x2="154" y2="286" stroke="#17324d" stroke-width="5"/>
    <line x1="154" y1="270" x2="130" y2="296" stroke="#17324d" stroke-width="5"/>
    <line x1="154" y1="270" x2="178" y2="296" stroke="#17324d" stroke-width="5"/>
    <defs><marker id="arr" markerWidth="8" markerHeight="8" refX="6" refY="3" orient="auto"><polygon points="0 0, 8 3, 0 6" fill="#1f7aec"/></marker></defs><line x1="240" y1="240" x2="330" y2="240" stroke="#1f7aec" stroke-width="6" marker-end="url(#arr)"/><text x="285.0" y="232.0" font-family="Arial,Helvetica,sans-serif" font-size="18" text-anchor="middle" fill="#1f7aec" font-weight="700">écart latéral</text>
    </svg>