<svg xmlns="http://www.w3.org/2000/svg" width="800" height="450" viewBox="0 0 800 450">
    <rect width="100%" height="100%" fill="#eef6ff"/>
    <rect width="800" height="450" fill="#0f1c2b"/><text x="70" y="55" font-family="Arial,Helvetica,sans-serif" font-size="24" text-anchor="start" fill="#fff" font-weight="700">Hors agglomération, nuit ou visibilité réduite</text><path d="M280 100 L350 100 L390 160 L410 320 L290 320 L250 160 Z" fill="#f5e44a" stroke="#17324d" stroke-width="4"/><rect x="280" y="175" width="130" height="18" fill="#cfd8e3"/><rect x="305" y="250" width="80" height="18" fill="#cfd8e3"/>
    <circle cx="500" cy="320" r="24" fill="none" stroke="#1f7aec" stroke-width="6"/>
    <circle cx="572" cy="320" r="24" fill="none" stroke="#1f7aec" stroke-width="6"/>
    <line x1="500" y1="320" x2="534" y2="286" stroke="#1f7aec" stroke-width="6"/>
    <line x1="534" y1="286" x2="554" y2="320" stroke="#1f7aec" stroke-width="6"/>
    <line x1="554" y1="320" x2="500" y2="320" stroke="#1f7aec" stroke-width="6"/>
    <line x1="534" y1="286" x2="572" y2="320" stroke="#1f7aec" stroke-width="6"/>
    <line x1="534" y1="286" x2="528" y2="268" stroke="#1f7aec" stroke-width="6"/>
    <line x1="534" y1="286" x2="558" y2="270" stroke="#1f7aec" stroke-width="6"/>
    <circle cx="534" cy="246" r="14" fill="#ffcf8b" stroke="#17324d" stroke-width="3"/>
    <line x1="534" y1="260" x2="534" y2="286" stroke="#17324d" stroke-width="5"/>
    <line x1="534" y1="270" x2="510" y2="296" stroke="#17324d" stroke-width="5"/>
    <line x1="534" y1="270" x2="558" y2="296" stroke="#17324d" stroke-width="5"/>
    
    </svg>