<svg xmlns="http://www.w3.org/2000/svg" width="800" height="450" viewBox="0 0 800 450">
    <rect width="100%" height="100%" fill="#eef6ff"/>
    <text x="70" y="55" font-family="Arial,Helvetica,sans-serif" font-size="32" text-anchor="start" fill="#17324d" font-weight="700">Avant de partir</text><rect x="120" y="100" width="240" height="220" rx="20" fill="#fff" stroke="#1f7aec" stroke-width="4"/><text x="170" y="145" font-family="Arial,Helvetica,sans-serif" font-size="28" text-anchor="start" fill="#17324d" font-weight="700">✓ pneus</text><text x="170" y="190" font-family="Arial,Helvetica,sans-serif" font-size="28" text-anchor="start" fill="#17324d" font-weight="700">✓ freins</text><text x="170" y="235" font-family="Arial,Helvetica,sans-serif" font-size="28" text-anchor="start" fill="#17324d" font-weight="700">✓ lumières</text><text x="170" y="280" font-family="Arial,Helvetica,sans-serif" font-size="28" text-anchor="start" fill="#17324d" font-weight="700">✓ sonnette</text>
    <circle cx="480" cy="320" r="24" fill="none" stroke="#1f7aec" stroke-width="6"/>
    <circle cx="552" cy="320" r="24" fill="none" stroke="#1f7aec" stroke-width="6"/>
    <line x1="480" y1="320" x2="514" y2="286" stroke="#1f7aec" stroke-width="6"/>
    <line x1="514" y1="286" x2="534" y2="320" stroke="#1f7aec" stroke-width="6"/>
    <line x1="534" y1="320" x2="480" y2="320" stroke="#1f7aec" stroke-width="6"/>
    <line x1="514" y1="286" x2="552" y2="320" stroke="#1f7aec" stroke-width="6"/>
    <line x1="514" y1="286" x2="508" y2="268" stroke="#1f7aec" stroke-width="6"/>
    <line x1="514" y1="286" x2="538" y2="270" stroke="#1f7aec" stroke-width="6"/>
    <circle cx="514" cy="246" r="14" fill="#ffcf8b" stroke="#17324d" stroke-width="3"/>
    <line x1="514" y1="260" x2="514" y2="286" stroke="#17324d" stroke-width="5"/>
    <line x1="514" y1="270" x2="490" y2="296" stroke="#17324d" stroke-width="5"/>
    <line x1="514" y1="270" x2="538" y2="296" stroke="#17324d" stroke-width="5"/>
    
    </svg>