<svg xmlns="http://www.w3.org/2000/svg" width="800" height="450" viewBox="0 0 800 450">
    <rect width="100%" height="100%" fill="#eef6ff"/>
    <circle cx="400" cy="230" r="90" fill="#7bc96f" stroke="#5f6b78" stroke-width="42"/><circle cx="400" cy="230" r="36" fill="#7bc96f"/><text x="80" y="55" font-family="Arial,Helvetica,sans-serif" font-size="32" text-anchor="start" fill="#17324d" font-weight="700">Giratoire</text>
    <circle cx="180" cy="230" r="24" fill="none" stroke="#1f7aec" stroke-width="6"/>
    <circle cx="252" cy="230" r="24" fill="none" stroke="#1f7aec" stroke-width="6"/>
    <line x1="180" y1="230" x2="214" y2="196" stroke="#1f7aec" stroke-width="6"/>
    <line x1="214" y1="196" x2="234" y2="230" stroke="#1f7aec" stroke-width="6"/>
    <line x1="234" y1="230" x2="180" y2="230" stroke="#1f7aec" stroke-width="6"/>
    <line x1="214" y1="196" x2="252" y2="230" stroke="#1f7aec" stroke-width="6"/>
    <line x1="214" y1="196" x2="208" y2="178" stroke="#1f7aec" stroke-width="6"/>
    <line x1="214" y1="196" x2="238" y2="180" stroke="#1f7aec" stroke-width="6"/>
    <circle cx="214" cy="156" r="14" fill="#ffcf8b" stroke="#17324d" stroke-width="3"/>
    <line x1="214" y1="170" x2="214" y2="196" stroke="#17324d" stroke-width="5"/>
    <line x1="214" y1="180" x2="190" y2="206" stroke="#17324d" stroke-width="5"/>
    <line x1="214" y1="180" x2="238" y2="206" stroke="#17324d" stroke-width="5"/>
    
    <rect x="470" y="140" width="120" height="46" rx="12" fill="#e15f41" stroke="#17324d" stroke-width="3"/>
    <path d="M 490 140 L 512 116 H 554 L 572 140 Z" fill="#e15f41" stroke="#17324d" stroke-width="3"/>
    <circle cx="498" cy="186" r="12" fill="#222"/>
    <circle cx="562" cy="186" r="12" fill="#222"/>
    <defs><marker id="arr" markerWidth="8" markerHeight="8" refX="6" refY="3" orient="auto"><polygon points="0 0, 8 3, 0 6" fill="#1f7aec"/></marker></defs><line x1="170" y1="260" x2="250" y2="260" stroke="#1f7aec" stroke-width="6" marker-end="url(#arr)"/><defs><marker id="arr" markerWidth="8" markerHeight="8" refX="6" refY="3" orient="auto"><polygon points="0 0, 8 3, 0 6" fill="#1f7aec"/></marker></defs><line x1="552" y1="186" x2="552" y2="280" stroke="#1f7aec" stroke-width="6" marker-end="url(#arr)"/>
    </svg>