<svg xmlns="http://www.w3.org/2000/svg" width="800" height="450" viewBox="0 0 800 450">
    <rect width="100%" height="100%" fill="#eef6ff"/>
    <text x="70" y="55" font-family="Arial,Helvetica,sans-serif" font-size="32" text-anchor="start" fill="#17324d" font-weight="700">Zone de rencontre</text>
    <rect x="0" y="260" width="800" height="120" fill="#5f6b78"/>
    <line x1="0" y1="320.0" x2="800" y2="320.0" stroke="#fff3a1" stroke-width="8" stroke-dasharray="30 18"/>
    
    <circle cx="170" cy="320" r="24" fill="none" stroke="#1f7aec" stroke-width="6"/>
    <circle cx="242" cy="320" r="24" fill="none" stroke="#1f7aec" stroke-width="6"/>
    <line x1="170" y1="320" x2="204" y2="286" stroke="#1f7aec" stroke-width="6"/>
    <line x1="204" y1="286" x2="224" y2="320" stroke="#1f7aec" stroke-width="6"/>
    <line x1="224" y1="320" x2="170" y2="320" stroke="#1f7aec" stroke-width="6"/>
    <line x1="204" y1="286" x2="242" y2="320" stroke="#1f7aec" stroke-width="6"/>
    <line x1="204" y1="286" x2="198" y2="268" stroke="#1f7aec" stroke-width="6"/>
    <line x1="204" y1="286" x2="228" y2="270" stroke="#1f7aec" stroke-width="6"/>
    <circle cx="204" cy="246" r="14" fill="#ffcf8b" stroke="#17324d" stroke-width="3"/>
    <line x1="204" y1="260" x2="204" y2="286" stroke="#17324d" stroke-width="5"/>
    <line x1="204" y1="270" x2="180" y2="296" stroke="#17324d" stroke-width="5"/>
    <line x1="204" y1="270" x2="228" y2="296" stroke="#17324d" stroke-width="5"/>
    
    <circle cx="390" cy="205" r="12" fill="#ffcf8b" stroke="#17324d" stroke-width="2"/>
    <line x1="390" y1="217" x2="390" y2="249" stroke="#17324d" stroke-width="5"/>
    <line x1="390" y1="225" x2="372" y2="239" stroke="#17324d" stroke-width="5"/>
    <line x1="390" y1="225" x2="408" y2="239" stroke="#17324d" stroke-width="5"/>
    <line x1="390" y1="249" x2="374" y2="273" stroke="#17324d" stroke-width="5"/>
    <line x1="390" y1="249" x2="406" y2="273" stroke="#17324d" stroke-width="5"/>
    
    <circle cx="470" cy="190" r="12" fill="#ffcf8b" stroke="#17324d" stroke-width="2"/>
    <line x1="470" y1="202" x2="470" y2="234" stroke="#17324d" stroke-width="5"/>
    <line x1="470" y1="210" x2="452" y2="224" stroke="#17324d" stroke-width="5"/>
    <line x1="470" y1="210" x2="488" y2="224" stroke="#17324d" stroke-width="5"/>
    <line x1="470" y1="234" x2="454" y2="258" stroke="#17324d" stroke-width="5"/>
    <line x1="470" y1="234" x2="486" y2="258" stroke="#17324d" stroke-width="5"/>
    
    <rect x="560" y="296" width="120" height="46" rx="12" fill="#9aa8b5" stroke="#17324d" stroke-width="3"/>
    <path d="M 580 296 L 602 272 H 644 L 662 296 Z" fill="#9aa8b5" stroke="#17324d" stroke-width="3"/>
    <circle cx="588" cy="342" r="12" fill="#222"/>
    <circle cx="652" cy="342" r="12" fill="#222"/>
    <text x="590" y="120" font-family="Arial,Helvetica,sans-serif" font-size="30" text-anchor="start" fill="#d64545" font-weight="700">20 km/h</text>
    </svg>