<svg xmlns="http://www.w3.org/2000/svg" width="800" height="450" viewBox="0 0 800 450">
    <rect width="100%" height="100%" fill="#eef6ff"/>
    <polygon points="169.9,130.7 140.7,159.9 99.3,159.9 70.1,130.7 70.1,89.3 99.3,60.1 140.7,60.1 169.9,89.3" fill="#d64545" stroke="#fff" stroke-width="8"/><text x="120" y="120" font-family="Arial,Helvetica,sans-serif" font-size="24" text-anchor="middle" fill="#fff" font-weight="700">STOP</text><text x="230" y="70" font-family="Arial,Helvetica,sans-serif" font-size="32" text-anchor="start" fill="#17324d" font-weight="700">Panneau STOP</text>
    <rect x="0" y="260" width="800" height="120" fill="#5f6b78"/>
    <line x1="0" y1="320.0" x2="800" y2="320.0" stroke="#fff3a1" stroke-width="8" stroke-dasharray="30 18"/>
    
    <circle cx="290" cy="320" r="24" fill="none" stroke="#1f7aec" stroke-width="6"/>
    <circle cx="362" cy="320" r="24" fill="none" stroke="#1f7aec" stroke-width="6"/>
    <line x1="290" y1="320" x2="324" y2="286" stroke="#1f7aec" stroke-width="6"/>
    <line x1="324" y1="286" x2="344" y2="320" stroke="#1f7aec" stroke-width="6"/>
    <line x1="344" y1="320" x2="290" y2="320" stroke="#1f7aec" stroke-width="6"/>
    <line x1="324" y1="286" x2="362" y2="320" stroke="#1f7aec" stroke-width="6"/>
    <line x1="324" y1="286" x2="318" y2="268" stroke="#1f7aec" stroke-width="6"/>
    <line x1="324" y1="286" x2="348" y2="270" stroke="#1f7aec" stroke-width="6"/>
    <circle cx="324" cy="246" r="14" fill="#ffcf8b" stroke="#17324d" stroke-width="3"/>
    <line x1="324" y1="260" x2="324" y2="286" stroke="#17324d" stroke-width="5"/>
    <line x1="324" y1="270" x2="300" y2="296" stroke="#17324d" stroke-width="5"/>
    <line x1="324" y1="270" x2="348" y2="296" stroke="#17324d" stroke-width="5"/>
    
    <rect x="480" y="296" width="120" height="46" rx="12" fill="#e15f41" stroke="#17324d" stroke-width="3"/>
    <path d="M 500 296 L 522 272 H 564 L 582 296 Z" fill="#e15f41" stroke="#17324d" stroke-width="3"/>
    <circle cx="508" cy="342" r="12" fill="#222"/>
    <circle cx="572" cy="342" r="12" fill="#222"/>
    <defs><marker id="arr" markerWidth="8" markerHeight="8" refX="6" refY="3" orient="auto"><polygon points="0 0, 8 3, 0 6" fill="#1f7aec"/></marker></defs><line x1="326" y1="246" x2="326" y2="178" stroke="#1f7aec" stroke-width="6" marker-end="url(#arr)"/><text x="326.0" y="204.0" font-family="Arial,Helvetica,sans-serif" font-size="18" text-anchor="middle" fill="#1f7aec" font-weight="700">arrêt</text>
    </svg>