<svg xmlns="http://www.w3.org/2000/svg" width="800" height="450" viewBox="0 0 800 450">
    <rect width="100%" height="100%" fill="#eef6ff"/>
    <text x="70" y="55" font-family="Arial,Helvetica,sans-serif" font-size="32" text-anchor="start" fill="#17324d" font-weight="700">Sol mouillé</text>
    <rect x="0" y="260" width="800" height="120" fill="#5f6b78"/>
    <line x1="0" y1="320.0" x2="800" y2="320.0" stroke="#fff3a1" stroke-width="8" stroke-dasharray="30 18"/>
    
    <circle cx="220" cy="320" r="24" fill="none" stroke="#1f7aec" stroke-width="6"/>
    <circle cx="292" cy="320" r="24" fill="none" stroke="#1f7aec" stroke-width="6"/>
    <line x1="220" y1="320" x2="254" y2="286" stroke="#1f7aec" stroke-width="6"/>
    <line x1="254" y1="286" x2="274" y2="320" stroke="#1f7aec" stroke-width="6"/>
    <line x1="274" y1="320" x2="220" y2="320" stroke="#1f7aec" stroke-width="6"/>
    <line x1="254" y1="286" x2="292" y2="320" stroke="#1f7aec" stroke-width="6"/>
    <line x1="254" y1="286" x2="248" y2="268" stroke="#1f7aec" stroke-width="6"/>
    <line x1="254" y1="286" x2="278" y2="270" stroke="#1f7aec" stroke-width="6"/>
    <circle cx="254" cy="246" r="14" fill="#ffcf8b" stroke="#17324d" stroke-width="3"/>
    <line x1="254" y1="260" x2="254" y2="286" stroke="#17324d" stroke-width="5"/>
    <line x1="254" y1="270" x2="230" y2="296" stroke="#17324d" stroke-width="5"/>
    <line x1="254" y1="270" x2="278" y2="296" stroke="#17324d" stroke-width="5"/>
    <defs><marker id="arr" markerWidth="8" markerHeight="8" refX="6" refY="3" orient="auto"><polygon points="0 0, 8 3, 0 6" fill="#1f7aec"/></marker></defs><line x1="270" y1="220" x2="340" y2="220" stroke="#1f7aec" stroke-width="6" marker-end="url(#arr)"/><text x="305.0" y="212.0" font-family="Arial,Helvetica,sans-serif" font-size="18" text-anchor="middle" fill="#1f7aec" font-weight="700">je freine tôt</text><path d="M380 120 C390 150 370 170 380 200" stroke="#1f7aec" stroke-width="6" fill="none"/><path d="M380 120 C390 150 370 170 380 200" stroke="#1f7aec" stroke-width="6" fill="none"/><path d="M380 120 C390 150 370 170 380 200" stroke="#1f7aec" stroke-width="6" fill="none"/><text x="470" y="300" font-family="Arial,Helvetica,sans-serif" font-size="28" text-anchor="start" fill="#1f7aec" font-weight="700">Plus de distance</text>
    </svg>